<?xml version="1.0" encoding="UTF-8"?>
<svg id="uuid-4da6d571-0815-4d3f-8ae2-cbaee23a2f46" xmlns="http://www.w3.org/2000/svg" xmlns:xlink="http://www.w3.org/1999/xlink" version="1.1" viewBox="0 0 249.5 249.6">
  <defs>
    <style>
      .cls-1 {
        fill: #0d376e;
      }

      .cls-1, .cls-2, .cls-3, .cls-4, .cls-5, .cls-6, .cls-7, .cls-8, .cls-9, .cls-10, .cls-11, .cls-12, .cls-13, .cls-14, .cls-15 {
        stroke-width: 0px;
      }

      .cls-2 {
        fill: #17396b;
      }

      .cls-16 {
        clip-path: url(#clippath);
      }

      .cls-3 {
        fill: none;
      }

      .cls-4 {
        fill: #11386d;
      }

      .cls-5 {
        fill: #07478d;
      }

      .cls-6 {
        fill: #de5c22;
      }

      .cls-7 {
        fill: #043673;
      }

      .cls-8 {
        fill: #043672;
      }

      .cls-9 {
        fill: #053d7d;
      }

      .cls-10 {
        fill: #0b3770;
      }

      .cls-11 {
        fill: #053d7e;
      }

      .cls-12 {
        fill: #0a3770;
      }

      .cls-13 {
        fill: #10386e;
      }

      .cls-14 {
        fill: #15396b;
      }

      .cls-15 {
        fill: #0f386d;
      }
    </style>
    <clipPath id="clippath">
      <rect class="cls-3" y=".1" width="249.5" height="249.5"/>
    </clipPath>
  </defs>
  <g class="cls-16">
    <path class="cls-5" d="M211.8.1h179.5l368,1,.5.5v194l-.5,55h-149.5l-232.5-.5-166-.5-2.5-2.5-8-10.5-6-8.5-8-10.5-13-18-5-6.5-5.5-7.5-7.5-10-5-7-6.5-8.5-6-8-4-5.5-6-8-7-9.5-.5-2.5,6.5-9,5-7,6.5-9,6.5-9.5,6.5-8.5,5.5-8,6-8.5,5.5-7.5,5-7,6-8.5,7-9.5,5.5-8,6-8.5,7-9.5,5-7,1.5-1.5Z"/>
    <path class="cls-6" d="M-186.7-.9L169.3.1l-3.5,5.5-5,6.5-4.5,6.5-7,9.5-5,7-6,8.5-6.5,9-5.5,7.5-5,7-19.5,27-2.5,3-2-1-6.5-9-6.5-8.5-5-7-4.5-6-8-10.5-3-4v-1l-42,.5,6.5,8.5,4,5,5,6.5,7,9,5.5,7,6,8,5.5,7,6,8,7,9,1.5,2-.5,2-6,8-7,8.5-5,6.5-10,12.5-3.5,4.5-5,6.5-10,12.5-6.5,8-6,8-.5,1h40.5l2.5-1,4.5-5,6-8,5.5-7,7.5-10,4.5-5.5,4.5-6,4-5,2.5-2.5,2,1,11,16,6.5,9.5,8,11.5,5.5,8,5,7,16,23,4.5,6.5,8,11.5,4,6v.5H-2.2l-190-.5V68.6l.5-69,5-.5Z"/>
    <path class="cls-13" d="M347.8,248.1h10l7,.5,28-.5,18,.5h76l17,.5,2.5.5v.5h-129l-32.5-.5.5-1,2.5-.5Z"/>
    <path class="cls-7" d="M205.3,241.6l3,2.5,1.5,2.5,5,1h18l21.5.5h7.5l22.5-.5,21.5.5h31.5l5,.5-.5,1h-130.5l-2.5-2.5-3.5-4.5v-1Z"/>
    <path class="cls-8" d="M508.8,248.1h11l33.5.5,26,.5h37l.5.5,37,.5v.5h-44l-103.5-.5-2.5-.5.5-1,4.5-.5Z"/>
    <path class="cls-8" d="M137.3,149.6l4,3,3,5,2.5,2.5,3,4.5,2.5,4,2,2,1.5,3,3.5,3.5,2,4,1,.5v1h1l1,3h1l3,4,.5,2.5-2.5-2.5-6-8-14-19-7-9-2-3v-1Z"/>
    <path class="cls-4" d="M169.8,193.6l2,.5,1.5,2v1h1v1l2,1,2.5,5,3.5,5.5,4,5v1h1v1l2,1,3,5,3,3.5,2,3.5,2.5,3.5-.5,1-6.5-8.5-14-19-6.5-9-2.5-3v-1Z"/>
    <path class="cls-9" d="M573.8,249.1h42.5l.5.5,37,.5v.5h-44l-36.5-.5.5-1Z"/>
    <path class="cls-14" d="M158.3,74.1l.5,1.5-2,1.5,1-2,.5-1ZM155.8,77.6l.5,1.5-5,7.5-4.5,6h-1l-.5,2-2.5,2,1-2,10-14,2-3ZM142.3,96.6l.5,1.5-2.5,2,1-2,1-1.5ZM139.8,100.1l.5,1.5-3.5,4.5-1,.5,1-2,3-4.5ZM135.3,106.6l.5,1.5-1.5.5,1-2Z"/>
    <path class="cls-1" d="M137.3,149.6l4,3,3,5,2.5,2.5,3,4.5,1,2-.5,1.5-12-16-1-2.5Z"/>
    <path class="cls-12" d="M169.8,193.6l2,.5,1.5,2v1h1v1l2,1,2.5,5,3.5,5.5-.5,1-7-9.5-5-6.5v-1Z"/>
    <path class="cls-8" d="M347.8,248.1h10l7,.5h4.5l.5,1h-25l.5-1,2.5-.5Z"/>
    <path class="cls-12" d="M158.3,74.1l.5,1.5-2,1.5,1-2,.5-1ZM155.8,77.6l.5,1.5-5,7.5-2,2.5h-1l1-2,5.5-8,1-1.5Z"/>
    <path class="cls-15" d="M201.3,14.1v1.5l-2,3.5-4,5.5-2.5,3-1-.5,5.5-7.5,4-5.5Z"/>
    <path class="cls-2" d="M129.8,139.6l3.5,3,2,3v1h1l1,1.5-.5,1.5-4.5-5.5-2.5-3.5v-1Z"/>
    <path class="cls-11" d="M303.8,248.1h3l1,1.5h-6.5v-1l2.5-.5Z"/>
    <path class="cls-10" d="M122.3,129.6l2.5,2.5,3.5,4-.5,1.5-4-5-1.5-2v-1Z"/>
    <path class="cls-8" d="M152.3,83.6v1.5l-3,4h-1l1-2,3-3.5Z"/>
  </g>
</svg>